<?xml version="1.0" encoding="UTF-8"?>
<svg width="24" height="24" viewBox="0 0 24 24" fill="none" xmlns="http://www.w3.org/2000/svg">
  <path d="M12 0C5.373 0 0 5.373 0 12s5.373 12 12 12 12-5.373 12-12S18.627 0 12 0zm6.5 13.5c0 3.59-2.91 6.5-6.5 6.5S5.5 17.09 5.5 13.5 8.41 7 12 7s6.5 2.91 6.5 6.5z" fill="#0085FF"/>
  <path d="M12 9c-2.485 0-4.5 2.015-4.5 4.5S9.515 18 12 18s4.5-2.015 4.5-4.5S14.485 9 12 9z" fill="#fff"/>
  <path d="M12 10.5c-1.657 0-3 1.343-3 3s1.343 3 3 3 3-1.343 3-3-1.343-3-3-3z" fill="#0085FF"/>
</svg>
